<?xml version="1.0" encoding="utf-8"?>
<!-- Generator: Adobe Illustrator 15.0.0, SVG Export Plug-In . SVG Version: 6.00 Build 0)  -->
<!DOCTYPE svg PUBLIC "-//W3C//DTD SVG 1.1//EN" "http://www.w3.org/Graphics/SVG/1.1/DTD/svg11.dtd">
<svg version="1.1" id="Layer_1" xmlns="http://www.w3.org/2000/svg" xmlns:xlink="http://www.w3.org/1999/xlink" x="0px" y="0px"
	 width="64px" height="64px" viewBox="0 0 64 64" enable-background="new 0 0 64 64" xml:space="preserve">
<rect fill="#E6E6E6" width="64" height="64"/>
<rect x="1" y="1" display="none" fill="#CCCCCC" width="62" height="62"/>
<path display="none" fill="#808080" d="M1.296,50C1.196,50,1.1,50.013,1,50.015V63h13.61C14.433,55.792,8.547,50,1.296,50z"/>
<path display="none" fill="#808080" d="M63,50.015C55.887,50.172,50.158,55.892,49.983,63H63V50.015z"/>
<path display="none" fill="#808080" d="M14.626,1.33c0-0.111-0.014-0.219-0.017-0.33H1v13.645c0.1,0.002,0.196,0.015,0.296,0.015
	C8.658,14.66,14.626,8.692,14.626,1.33z"/>
<path display="none" fill="#808080" d="M49.983,1c-0.003,0.111-0.017,0.219-0.017,0.33c0,7.262,5.81,13.156,13.033,13.315V1H49.983z
	"/>
</svg>
